<svg width="86" height="17" viewBox="0 0 86 17" fill="none" xmlns="http://www.w3.org/2000/svg">
<path d="M5.73171 16.1989C4.72792 16.1989 3.83304 16.0142 3.04705 15.6449C2.2658 15.2756 1.64554 14.7666 1.18626 14.1179C0.726977 13.4692 0.487867 12.7259 0.468928 11.8878H3.45188C3.48503 12.4512 3.72177 12.9081 4.16211 13.2585C4.60245 13.6089 5.12565 13.7841 5.73171 13.7841C6.21467 13.7841 6.6408 13.6776 7.01012 13.4645C7.38417 13.2467 7.67537 12.946 7.8837 12.5625C8.09677 12.1742 8.2033 11.7292 8.2033 11.2273C8.2033 10.7159 8.0944 10.2661 7.8766 9.87784C7.66353 9.48958 7.3676 9.18655 6.98881 8.96875C6.61003 8.75095 6.17679 8.63968 5.6891 8.63494C5.26296 8.63494 4.84866 8.72254 4.4462 8.89773C4.04847 9.07292 3.73834 9.31203 3.5158 9.61506L0.781428 9.125L1.47035 1.45455H10.3624V3.96875H4.00586L3.62944 7.61222H3.71467C3.97035 7.25237 4.35624 6.95407 4.87234 6.71733C5.38844 6.48059 5.96609 6.36222 6.60529 6.36222C7.48124 6.36222 8.26249 6.56818 8.94904 6.98011C9.63559 7.39205 10.1777 7.95786 10.5755 8.67756C10.9732 9.39252 11.1697 10.2164 11.165 11.1491C11.1697 12.1293 10.9424 13.0005 10.4831 13.7628C10.0286 14.5204 9.39175 15.117 8.57262 15.5526C7.75823 15.9834 6.81126 16.1989 5.73171 16.1989ZM19.013 16.3196C17.7914 16.3149 16.7402 16.0142 15.8596 15.4176C14.9836 14.821 14.3089 13.9569 13.8354 12.8253C13.3667 11.6937 13.1346 10.3324 13.1394 8.74148C13.1394 7.1553 13.3738 5.8035 13.8425 4.68608C14.316 3.56865 14.9907 2.71875 15.8667 2.13636C16.7473 1.54924 17.7961 1.25568 19.013 1.25568C20.2298 1.25568 21.2762 1.54924 22.1522 2.13636C23.0328 2.72348 23.7099 3.57576 24.1834 4.69318C24.6569 5.80587 24.8913 7.1553 24.8865 8.74148C24.8865 10.3371 24.6498 11.7008 24.1763 12.8324C23.7076 13.964 23.0352 14.8281 22.1593 15.4247C21.2833 16.0213 20.2346 16.3196 19.013 16.3196ZM19.013 13.7699C19.8463 13.7699 20.5115 13.3509 21.0087 12.5128C21.5059 11.6747 21.7521 10.4176 21.7473 8.74148C21.7473 7.63826 21.6337 6.7197 21.4064 5.9858C21.1839 5.25189 20.8667 4.70028 20.4547 4.33097C20.0475 3.96165 19.5669 3.77699 19.013 3.77699C18.1844 3.77699 17.5215 4.19129 17.0243 5.01989C16.5272 5.84848 16.2762 7.08901 16.2715 8.74148C16.2715 9.8589 16.3828 10.7917 16.6053 11.5398C16.8326 12.2831 17.1522 12.8419 17.5641 13.2159C17.976 13.5852 18.459 13.7699 19.013 13.7699ZM35.041 13.2727V12.5057C35.041 11.9233 35.1641 11.3883 35.4103 10.9006C35.6613 10.4081 36.0235 10.0152 36.497 9.72159C36.9752 9.4233 37.5576 9.27415 38.2441 9.27415C38.9402 9.27415 39.5249 9.42093 39.9984 9.71449C40.4766 10.008 40.8365 10.401 41.0779 10.8935C41.3242 11.3812 41.4473 11.9186 41.4473 12.5057V13.2727C41.4473 13.8551 41.3242 14.3925 41.0779 14.8849C40.8317 15.3726 40.4695 15.7633 39.9913 16.0568C39.5131 16.3551 38.9307 16.5043 38.2441 16.5043C37.5481 16.5043 36.9634 16.3551 36.4899 16.0568C36.0164 15.7633 35.6565 15.3726 35.4103 14.8849C35.1641 14.3925 35.041 13.8551 35.041 13.2727ZM37.1078 12.5057V13.2727C37.1078 13.6089 37.1883 13.9261 37.3493 14.2244C37.515 14.5227 37.8133 14.6719 38.2441 14.6719C38.675 14.6719 38.9686 14.5251 39.1248 14.2315C39.2858 13.938 39.3663 13.6184 39.3663 13.2727V12.5057C39.3663 12.16 39.2905 11.8381 39.139 11.5398C38.9875 11.2415 38.6892 11.0923 38.2441 11.0923C37.818 11.0923 37.5221 11.2415 37.3564 11.5398C37.1906 11.8381 37.1078 12.16 37.1078 12.5057ZM27.5765 4.94886V4.18182C27.5765 3.5947 27.702 3.05729 27.9529 2.5696C28.2039 2.07718 28.5661 1.68419 29.0396 1.39062C29.5178 1.09706 30.0955 0.950284 30.7725 0.950284C31.4733 0.950284 32.0604 1.09706 32.5339 1.39062C33.0074 1.68419 33.3672 2.07718 33.6135 2.5696C33.8597 3.05729 33.9828 3.5947 33.9828 4.18182V4.94886C33.9828 5.53598 33.8573 6.07339 33.6064 6.56108C33.3601 7.04877 32.9979 7.43939 32.5197 7.73295C32.0462 8.02178 31.4638 8.16619 30.7725 8.16619C30.0813 8.16619 29.4965 8.01941 29.0183 7.72585C28.5448 7.42756 28.185 7.03693 27.9387 6.55398C27.6973 6.06629 27.5765 5.53125 27.5765 4.94886ZM29.6575 4.18182V4.94886C29.6575 5.29451 29.738 5.61411 29.899 5.90767C30.0647 6.20123 30.3559 6.34801 30.7725 6.34801C31.2082 6.34801 31.5041 6.20123 31.6603 5.90767C31.8213 5.61411 31.9018 5.29451 31.9018 4.94886V4.18182C31.9018 3.83617 31.8261 3.5142 31.6745 3.21591C31.523 2.91761 31.2224 2.76847 30.7725 2.76847C30.3511 2.76847 30.06 2.91998 29.899 3.22301C29.738 3.52604 29.6575 3.84564 29.6575 4.18182ZM28.514 16L38.514 1.45455H40.3748L30.3748 16H28.514ZM62.3475 8.72727C62.3475 10.3134 62.0468 11.6629 61.4455 12.7756C60.8489 13.8883 60.0345 14.7382 59.0023 15.3253C57.9748 15.9077 56.8195 16.1989 55.5364 16.1989C54.2438 16.1989 53.0837 15.9053 52.0563 15.3182C51.0288 14.7311 50.2168 13.8812 49.6202 12.7685C49.0236 11.6558 48.7253 10.3087 48.7253 8.72727C48.7253 7.1411 49.0236 5.79167 49.6202 4.67898C50.2168 3.56629 51.0288 2.71875 52.0563 2.13636C53.0837 1.54924 54.2438 1.25568 55.5364 1.25568C56.8195 1.25568 57.9748 1.54924 59.0023 2.13636C60.0345 2.71875 60.8489 3.56629 61.4455 4.67898C62.0468 5.79167 62.3475 7.1411 62.3475 8.72727ZM59.2296 8.72727C59.2296 7.69981 59.0757 6.83333 58.7679 6.12784C58.4649 5.42235 58.0364 4.88731 57.4824 4.52273C56.9284 4.15814 56.2798 3.97585 55.5364 3.97585C54.793 3.97585 54.1444 4.15814 53.5904 4.52273C53.0364 4.88731 52.6055 5.42235 52.2978 6.12784C51.9947 6.83333 51.8432 7.69981 51.8432 8.72727C51.8432 9.75473 51.9947 10.6212 52.2978 11.3267C52.6055 12.0322 53.0364 12.5672 53.5904 12.9318C54.1444 13.2964 54.793 13.4787 55.5364 13.4787C56.2798 13.4787 56.9284 13.2964 57.4824 12.9318C58.0364 12.5672 58.4649 12.0322 58.7679 11.3267C59.0757 10.6212 59.2296 9.75473 59.2296 8.72727ZM64.6255 16V1.45455H74.2562V3.99006H67.7008V7.45597H73.617V9.99148H67.7008V16H64.6255ZM76.3248 16V1.45455H85.9554V3.99006H79.4V7.45597H85.3162V9.99148H79.4V16H76.3248Z" fill="url(#paint0_linear_354_1035)"/>
<defs>
<linearGradient id="paint0_linear_354_1035" x1="-1" y1="-3" x2="56.9096" y2="52.4341" gradientUnits="userSpaceOnUse">
<stop stop-color="#C19311"/>
<stop offset="0.489583" stop-color="#EBCB73"/>
<stop offset="0.985431" stop-color="#EAAC00"/>
</linearGradient>
</defs>
</svg>
